<svg id="Layer_1" data-name="Layer 1" xmlns="http://www.w3.org/2000/svg" viewBox="0 0 500 500" width="500" height="500" class="illustration"><path d="M450.83,160V407.59A2.43,2.43,0,0,1,448.4,410H71.09a2.43,2.43,0,0,1-2.43-2.43V160Z" fill="#f2f2f2"></path><path d="M68.66,160v30.27H430.73V410H448.4a2.43,2.43,0,0,0,2.43-2.43V160Z" fill="#c3c7c9" opacity="0.26"></path><path d="M450.83,104.2v68.34H68.66V104.2a2.42,2.42,0,0,1,2.43-2.43H448.4A2.43,2.43,0,0,1,450.83,104.2Z" fill="#24285b"></path><circle cx="116.76" cy="140.46" r="19.02" fill="#12173f"></circle><circle cx="405.33" cy="140.46" r="19.02" fill="#12173f"></circle><path d="M127.92,91.93v49.84A11.15,11.15,0,0,1,117,152.92h-.21a11.15,11.15,0,0,1-11.15-11.15V91.93a11.12,11.12,0,0,1,11.15-11.15H117a11.16,11.16,0,0,1,10.94,11.15Z" fill="#ffd44d"></path><path d="M117,80.78v72.14h-.21a11.15,11.15,0,0,1-11.15-11.15V91.93a11.12,11.12,0,0,1,11.15-11.15Z" fill="#f9bb0d"></path><path d="M416.06,91.93v49.84a11.15,11.15,0,0,1-10.94,11.15h-.21a11.15,11.15,0,0,1-11.15-11.15V91.93a11,11,0,0,1,.64-3.72,11.13,11.13,0,0,1,10.51-7.43h.21a11.16,11.16,0,0,1,10.94,11.15Z" fill="#ffd44d"></path><path d="M405.12,80.78v72.14h-.21a11.15,11.15,0,0,1-11.15-11.15V91.93a11,11,0,0,1,.64-3.72,11.13,11.13,0,0,1,10.51-7.43Z" fill="#f9bb0d"></path><rect x="125.59" y="209.81" width="64.79" height="64.79" fill="#c3c7c9"></rect><rect x="221.55" y="209.81" width="64.79" height="64.79" fill="#f0457d"></rect><rect x="310.3" y="209.81" width="64.79" height="64.79" fill="#c3c7c9"></rect><rect x="125.59" y="299.26" width="64.79" height="64.79" fill="#0099f5"></rect><rect x="221.55" y="299.26" width="64.79" height="64.79" fill="#c3c7c9"></rect><rect x="310.3" y="299.26" width="64.79" height="64.79" fill="#c3c7c9"></rect></svg>